{"glyphs":{":":{"x_min":0,"x_max":360,"ha":360,"o":"m 0 0 l 0 231 l 231 231 l 231 0 z m 0 385 l 0 616 l 231 616 l 231 385 z"},"$":{"x_min":0,"x_max":890,"ha":890,"o":"m 266 550 q 278 624 279 638 q 217 630 217 585 q 221 552 266 550 z m 535 547 q 614 532 674 497 q 752 451 763 385 q 771 339 771 315 l 771 302 q 771 181 676 124 q 609 84 470 71 q 470 3 475 -2 l 220 0 q 219 10 223 68 q 176 68 74 71 l -3 302 q 141 293 239 288 q 239 302 247 372 q 110 387 45 460 q 0 512 0 610 l 0 622 q 0 749 106 805 q 181 845 327 854 q 341 898 356 926 l 600 929 q 598 919 585 857 q 626 857 706 854 l 780 622 q 755 624 673 629 l 550 637 q 543 603 535 547 z m 507 366 q 501 317 496 291 q 553 302 555 328 q 556 359 507 366 z"},"?":{"x_min":0,"x_max":853,"ha":853,"o":"m 171 310 q 144 310 77 309 l 0 540 q 304 540 469 582 q 540 600 540 616 q 540 694 77 694 l 0 925 l 162 925 q 336 925 392 921 q 531 912 617 878 q 771 818 771 616 q 771 498 609 409 q 436 313 171 310 z m 154 0 l 154 231 l 385 231 l 385 0 z"},"<":{"x_min":0,"x_max":735,"ha":735,"o":"m 0 456 q 46 503 120 555 q 201 610 361 722 q 454 789 462 809 l 622 670 q 578 600 316 479 q 342 447 425 394 q 495 348 552 307 l 419 174 q 401 193 269 275 l 97 382 q 22 430 0 456 z"},"'":{"x_min":0,"x_max":376,"ha":376,"o":"m 231 543 l 0 543 q 19 613 19 753 q 19 895 0 925 l 231 925 q 247 901 247 740 q 247 579 231 543 z"},"=":{"x_min":0,"x_max":872,"ha":872,"o":"m 3 178 l 80 409 q 180 442 415 464 q 640 485 774 485 l 697 254 q 676 263 613 263 q 454 263 205 221 q 95 202 3 178 z m 6 528 l 84 760 q 210 802 544 825 q 684 835 777 837 l 700 606 q 679 615 616 615 q 313 615 6 528 z"},"a":{"x_min":0,"x_max":682,"ha":682,"o":"m 278 79 l 239 220 l 348 220 l 394 79 z m 2 116 q 76 252 100 422 q 113 515 123 740 l 493 740 q 493 445 545 248 q 573 142 616 123 l 528 0 q 395 44 355 342 q 339 464 339 555 l 278 555 q 267 253 146 5 z"},"L":{"x_min":0,"x_max":775,"ha":775,"o":"m 357 62 q 353 8 347 0 l 125 0 q 125 19 126 28 q 23 11 0 0 l 77 231 q 97 239 129 244 q 129 248 130 309 q 131 390 132 470 q 132 594 130 700 q 127 826 116 925 l 347 925 q 363 701 363 278 l 523 293 q 675 309 771 309 l 694 77 q 658 82 618 82 q 536 82 357 62 z"},"3":{"x_min":0,"x_max":889,"ha":889,"o":"m 394 330 q 266 359 194 359 q 172 359 160 356 l 84 587 q 205 586 391 561 q 387 603 387 685 q 274 695 147 695 q 90 695 77 694 l 0 925 q 187 923 416 894 q 418 901 424 925 l 655 925 q 645 925 640 859 q 658 856 694 847 l 771 616 q 716 638 637 653 q 631 573 631 457 q 631 169 655 0 l 424 0 q 339 14 242 14 q 141 14 72 2 l -5 233 q 134 233 289 229 q 327 228 406 220 q 401 257 394 330 z"},";":{"x_min":0,"x_max":373,"ha":373,"o":"m 0 385 l 0 616 l 231 616 l 231 385 z m 231 -151 l 0 -151 q 19 -81 19 60 q 19 205 0 231 l 231 231 q 247 208 247 46 q 247 -118 231 -151 z"},"J":{"x_min":0,"x_max":871,"ha":871,"o":"m 540 925 l 771 925 q 771 0 116 0 l 0 193 q 20 191 57 191 q 345 191 459 429 q 540 597 540 925 z"},"V":{"x_min":0,"x_max":861,"ha":861,"o":"m 231 229 q 356 295 439 450 q 540 635 540 925 l 771 925 q 771 559 599 277 q 530 163 444 91 q 336 0 226 0 l 0 0 l 0 925 l 231 925 z"},"\"":{"x_min":0,"x_max":684,"ha":684,"o":"m 231 543 l 0 543 q 19 613 19 753 q 19 895 0 925 l 231 925 q 247 901 247 740 q 247 579 231 543 z m 540 543 l 309 543 q 321 592 325 676 q 327 707 327 753 q 327 896 309 925 l 540 925 q 555 901 555 740 q 555 580 540 543 z"},"7":{"x_min":0,"x_max":869,"ha":869,"o":"m 540 694 l 0 694 l 0 925 l 771 925 l 771 694 q 771 597 721 473 q 612 204 384 74 q 268 9 135 9 l 25 145 q 305 224 433 406 q 511 517 540 694 z"},"S":{"x_min":0,"x_max":894,"ha":894,"o":"m 450 373 l 313 370 q 264 369 77 339 l 0 540 l 8 540 q 0 590 0 610 l 0 622 q 0 813 233 884 q 369 926 619 926 q 658 926 694 925 l 771 694 q 616 703 507 703 q 217 703 213 616 q 210 563 318 552 l 457 555 q 506 555 694 585 l 771 385 l 763 385 q 771 332 771 315 l 771 302 q 771 -5 151 -2 q 139 -2 114 -1 q 90 0 77 0 l 0 231 q 154 222 263 222 q 553 222 558 309 q 561 363 450 373 z"},"}":{"x_min":0,"x_max":515,"ha":515,"o":"m 385 469 q 385 339 381 290 q 371 183 333 120 q 260 0 0 0 l 77 200 q 174 200 174 399 q 174 438 172 463 q 171 488 168 538 q 157 694 0 694 l 77 925 q 252 925 329 752 q 385 625 385 469 z"},"Z":{"x_min":0,"x_max":907,"ha":907,"o":"m 132 0 l 0 229 q 226 294 346 382 q 508 501 540 694 l 0 694 l 0 925 l 771 925 l 767 695 q 765 521 659 352 q 609 272 540 231 l 771 231 l 771 0 z"},"x":{"x_min":0,"x_max":695,"ha":695,"o":"m 369 472 q 447 573 491 685 l 619 574 q 545 419 477 318 q 594 144 594 105 l 488 -2 q 435 93 378 186 q 250 44 108 8 l 5 150 q 140 219 267 351 q 90 616 -5 624 l 96 735 q 176 735 369 472 z"},")":{"x_min":0,"x_max":515,"ha":515,"o":"m 385 469 q 385 339 381 290 q 371 183 333 120 q 260 0 0 0 l 77 200 q 174 200 174 399 q 174 438 172 463 q 171 488 168 538 q 157 694 0 694 l 77 925 q 252 925 329 752 q 385 625 385 469 z"},"&":{"x_min":0,"x_max":822,"ha":822,"o":"m 233 703 l 328 556 q 357 561 385 576 q 421 595 421 619 q 418 682 355 695 q 318 703 233 703 z m 582 163 l 687 0 l 475 -6 l 430 66 q 305 3 213 3 q 0 3 0 302 q 0 457 147 521 l 38 695 q 14 695 0 694 l 77 925 q 116 926 153 926 q 411 926 514 869 q 634 803 634 625 l 634 613 q 634 432 438 385 l 506 282 q 579 328 698 424 l 621 193 z m 350 196 l 247 360 q 193 338 191 299 q 187 178 269 178 q 301 178 350 196 z"},"_":{"x_min":0,"x_max":1054,"ha":1054,"o":"m 2 -2 l 78 229 q 216 222 403 223 l 556 225 l 826 227 q 916 228 922 228 l 844 -3 q 810 -3 777 -4 l 668 -5 l 290 -8 q 94 -8 2 -2 z"},"v":{"x_min":0,"x_max":688,"ha":688,"o":"m 185 184 q 317 253 381 425 q 432 563 432 740 l 616 740 q 616 447 479 221 q 424 130 355 73 q 269 0 181 0 l 0 0 l 0 740 l 185 740 z"},"O":{"x_min":0,"x_max":892,"ha":892,"o":"m 387 694 q 282 694 233 552 q 214 494 213 462 q 211 357 283 275 q 322 231 385 231 q 498 231 540 375 q 556 430 555 462 q 549 567 479 649 q 442 694 387 694 z m 384 0 q 281 0 190 62 q 107 120 56 216 q 0 321 0 456 l 0 469 q 0 685 143 813 q 261 919 385 925 q 506 919 625 813 q 767 685 767 469 l 767 456 q 767 331 719 229 q 667 119 567 56 q 477 0 384 0 z"},"(":{"x_min":0,"x_max":507,"ha":507,"o":"m 0 469 q 0 620 56 750 q 132 925 309 925 l 385 694 q 268 694 236 615 q 222 582 213 462 q 210 422 210 397 q 210 200 309 200 l 385 0 q 126 0 53 120 q 15 184 5 290 q 0 336 0 469 z"},"C":{"x_min":0,"x_max":864,"ha":864,"o":"m 213 462 q 211 397 282 335 q 417 218 694 200 l 771 0 q 394 0 204 106 q 105 161 53 252 q 0 342 0 456 l 0 469 q 0 693 248 821 q 448 925 694 925 l 771 694 q 746 695 701 695 q 472 695 337 612 q 215 536 213 462 z"},"W":{"x_min":0,"x_max":1196,"ha":1196,"o":"m 347 231 l 732 231 q 807 333 828 524 q 840 631 847 925 l 1079 925 l 1068 640 q 1060 476 1044 356 q 1013 132 925 0 l 154 0 q 50 125 14 439 q -3 590 -3 769 q -3 819 0 925 l 231 925 q 233 716 245 533 q 258 336 347 231 z m 416 309 l 428 925 l 656 925 l 663 309 z"},"A":{"x_min":0,"x_max":853,"ha":853,"o":"m 348 99 l 299 275 l 435 275 l 493 99 z m 3 145 q 96 315 125 527 q 141 645 154 925 l 616 925 q 616 556 681 309 q 716 178 771 154 l 660 0 q 494 56 444 428 q 424 579 424 694 l 347 694 q 334 316 182 6 z"},"f":{"x_min":0,"x_max":676,"ha":676,"o":"m 90 275 q 40 265 2 254 l 62 439 q 100 450 139 457 q 155 511 159 529 q 58 511 4 495 l 65 680 q 174 716 435 734 q 537 741 620 742 l 558 558 q 542 564 494 564 q 420 564 315 551 q 309 513 299 480 q 379 488 455 493 q 568 500 618 500 l 556 315 q 537 324 489 324 q 400 324 257 303 q 207 114 185 71 l 0 0 q 18 23 90 275 z"},"Q":{"x_min":0,"x_max":885,"ha":885,"o":"m 757 360 l 555 462 q 550 567 479 649 q 441 694 387 694 q 282 694 233 552 q 214 494 213 462 q 211 357 283 275 q 322 231 385 231 l 460 -6 q 248 -2 124 121 q 0 244 0 456 l 0 469 q 0 685 143 813 q 266 922 385 925 q 600 929 705 733 q 761 628 761 457 q 761 412 757 360 z m 510 422 l 679 339 q 649 290 649 248 q 649 193 726 193 q 734 193 763 196 l 679 -2 q 457 29 457 214 q 457 302 510 422 z"},"w":{"x_min":0,"x_max":956,"ha":956,"o":"m 278 185 l 585 185 q 646 266 663 419 q 672 504 678 740 l 863 740 l 855 512 q 848 381 835 284 q 810 105 740 0 l 123 0 q 41 100 11 351 q -2 472 -2 616 q -2 655 0 740 l 185 740 q 187 573 196 426 q 206 269 278 185 z m 333 247 l 342 740 l 525 740 l 530 247 z"},"-":{"x_min":0,"x_max":882,"ha":882,"o":"m 2 318 l 78 549 q 178 582 414 604 q 639 625 772 625 l 695 394 q 672 404 612 404 q 450 404 197 360 q 89 342 2 318 z"},"E":{"x_min":0,"x_max":871,"ha":871,"o":"m 5 619 l 82 850 q 217 895 544 917 q 672 926 775 928 l 698 697 q 677 706 615 706 q 312 706 5 619 z m 2 318 l 78 549 q 178 582 414 604 q 639 625 772 625 l 695 394 q 672 404 612 404 q 450 404 197 360 q 89 342 2 318 z m -3 -5 l 74 226 q 174 260 409 282 q 634 303 767 303 l 691 72 q 667 82 607 82 q 445 82 193 38 q 84 20 -3 -5 z"},"s":{"x_min":0,"x_max":715,"ha":715,"o":"m 360 299 l 251 296 q 211 295 62 272 l 0 432 l 6 432 q 0 472 0 488 l 0 498 q 0 651 186 707 q 296 741 495 741 q 526 741 555 740 l 616 555 q 493 562 406 562 q 174 562 170 493 q 168 450 254 441 l 366 444 q 405 445 555 468 l 616 309 l 610 309 q 616 266 616 251 l 616 242 q 616 -4 121 -2 q 111 -2 91 -1 q 71 0 62 0 l 0 185 q 123 178 211 178 q 442 178 446 247 q 448 290 360 299 z"},">":{"x_min":0,"x_max":715,"ha":715,"o":"m 616 456 q 590 424 325 259 q 208 186 197 174 l 65 307 q 73 316 108 339 l 188 391 q 228 418 248 432 q 285 460 300 479 q 37 604 -6 670 l 154 809 q 162 789 355 654 q 400 622 491 560 q 575 500 616 456 z"},"l":{"x_min":0,"x_max":620,"ha":620,"o":"m 286 50 q 282 6 278 0 l 100 0 q 100 15 101 23 q 18 9 0 0 l 62 185 q 78 191 104 195 q 104 198 104 248 q 105 312 105 375 q 106 475 104 560 q 102 661 93 740 l 278 740 q 290 561 290 222 l 418 235 q 540 247 616 247 l 555 62 q 527 65 494 65 q 429 65 286 50 z"},"8":{"x_min":0,"x_max":890,"ha":890,"o":"m 406 675 q 320 675 294 671 q 214 659 213 616 q 211 563 318 552 l 325 552 z m 285 166 q 312 162 336 162 q 465 162 532 259 q 560 299 561 324 q 561 348 538 358 q 503 373 450 373 l 433 373 z m 199 0 l 2 51 l 211 376 q 29 405 8 540 q 0 588 0 610 l 0 622 q 0 774 151 827 q 266 868 528 868 l 563 920 l 758 889 l 726 837 l 781 655 l 616 664 l 543 547 q 731 508 763 385 q 771 332 771 315 l 771 302 q 771 108 524 32 q 411 -3 276 -3 q 251 -3 199 0 z"},"\\":{"x_min":0,"x_max":801,"ha":801,"o":"m 613 -2 q 530 184 290 485 q 58 775 -6 780 l 120 919 q 226 909 451 610 q 664 329 743 131 z"},"e":{"x_min":0,"x_max":697,"ha":697,"o":"m 4 495 l 65 680 q 174 716 435 734 q 537 741 620 742 l 558 558 q 542 564 492 564 q 249 564 4 495 z m 2 254 l 62 439 q 143 466 331 483 q 511 500 618 500 l 556 315 q 537 324 489 324 q 360 324 158 288 q 71 273 2 254 z m -2 -4 l 59 181 q 139 208 327 226 q 507 242 614 242 l 552 58 q 534 65 486 65 q 356 65 154 31 q 68 16 -2 -4 z"},"b":{"x_min":0,"x_max":736,"ha":736,"o":"m 294 554 q 299 483 301 407 q 444 407 444 579 q 423 579 370 569 q 337 562 294 554 z m 113 515 q 42 499 0 493 l 62 678 q 75 685 105 694 q 99 740 93 740 l 278 740 q 278 738 280 726 q 402 742 528 742 q 555 742 616 740 q 628 685 628 628 q 628 501 573 413 q 641 312 641 232 q 641 124 524 62 q 472 35 408 20 q 324 0 278 0 l 93 0 q 105 89 111 278 q 114 364 114 438 q 114 478 113 515 z m 438 293 q 372 263 293 254 q 299 254 299 174 q 368 180 399 202 q 438 229 438 293 z"},"%":{"x_min":0,"x_max":865,"ha":865,"o":"m 774 718 q 738 541 491 287 q 254 41 135 9 l 6 188 q 115 245 326 445 q 416 530 462 590 q 559 716 613 857 z m 595 108 l 546 284 l 681 284 l 740 108 z m 154 512 l 105 687 l 240 687 l 299 512 z"},"m":{"x_min":0,"x_max":929,"ha":929,"o":"m 278 555 q 267 253 146 5 l 2 116 q 76 252 100 422 q 113 515 123 740 l 740 740 q 740 445 792 248 q 819 142 863 123 l 774 0 q 642 44 602 342 q 585 464 585 555 z m 333 493 l 530 493 l 525 0 l 342 0 z"},"#":{"x_min":0,"x_max":892,"ha":892,"o":"m 418 815 q 418 823 417 841 l 416 865 l 647 865 l 647 832 q 724 837 777 837 l 700 606 q 685 613 649 613 q 647 575 647 481 q 722 485 774 485 l 697 254 q 682 261 644 263 q 644 178 643 129 l 412 129 q 415 212 415 250 q 397 248 348 242 q 347 206 347 134 l 116 134 q 116 181 117 205 q 52 190 3 178 l 80 409 q 96 414 122 419 q 122 515 123 556 q 50 541 6 528 l 84 760 l 106 767 q 111 767 122 771 l 122 843 q 122 851 120 869 l 351 869 q 351 860 353 807 l 389 812 q 399 813 418 815 z m 353 593 q 351 566 351 502 l 351 456 q 394 462 419 464 l 419 601 q 390 600 353 593 z"},",":{"x_min":0,"x_max":386,"ha":386,"o":"m 231 -151 l 0 -151 q 19 -81 19 60 q 19 205 0 231 l 231 231 q 247 208 247 46 q 247 -118 231 -151 z"},"n":{"x_min":0,"x_max":682,"ha":682,"o":"m 0 740 l 493 740 q 493 445 545 248 q 573 142 616 123 l 528 0 q 395 44 355 342 q 339 464 339 555 l 185 555 l 185 0 l 0 0 z"},"h":{"x_min":0,"x_max":679,"ha":679,"o":"m 594 108 l 427 10 q 438 77 438 169 q 438 432 303 432 l 303 329 q 303 234 291 106 q 286 50 278 0 l 93 0 q 114 161 114 432 l 0 432 l 62 616 l 105 616 q 102 658 93 740 l 278 740 q 286 688 292 616 q 381 608 397 605 q 449 594 492 564 q 600 487 600 239 q 600 169 594 108 z"},"z":{"x_min":0,"x_max":725,"ha":725,"o":"m 106 0 l 0 184 q 181 236 277 305 q 406 400 432 555 l 0 555 l 0 740 l 616 740 l 614 556 q 612 417 527 281 q 487 217 432 185 l 616 185 l 616 0 z"},"B":{"x_min":0,"x_max":910,"ha":910,"o":"m 368 692 q 374 603 376 509 q 555 509 555 725 q 528 725 463 711 q 421 703 368 692 z m 141 644 q 53 624 0 616 l 77 847 q 94 857 131 868 q 124 925 116 925 l 347 925 q 348 922 350 907 q 503 928 660 928 q 694 928 771 925 q 784 857 784 784 q 784 626 716 516 q 801 390 801 290 q 801 155 655 78 q 589 44 510 25 q 406 0 347 0 l 116 0 q 131 111 139 347 q 143 454 143 547 q 143 597 141 644 z m 547 366 q 465 328 366 318 q 375 318 375 217 q 460 225 498 252 q 547 287 547 366 z"},"K":{"x_min":0,"x_max":842,"ha":842,"o":"m 231 0 l 0 0 q 29 202 29 438 q 29 716 0 925 l 231 925 q 263 737 263 456 q 263 211 231 0 z m 287 576 q 444 591 526 772 q 560 847 567 909 l 761 798 q 673 486 425 431 q 419 436 372 486 z m 357 435 q 389 419 463 383 l 527 351 q 503 324 503 294 q 503 208 737 188 l 653 -9 q 473 12 360 100 q 288 156 288 247 q 288 330 357 435 z"},"R":{"x_min":0,"x_max":880,"ha":880,"o":"m 171 310 q 129 309 77 309 l 0 540 q 304 540 469 582 q 540 600 540 616 q 540 694 77 694 l 0 925 l 162 925 q 336 925 392 921 q 531 912 617 878 q 771 818 771 616 q 771 485 587 406 q 505 370 403 347 q 403 159 385 0 l 154 0 q 171 149 171 310 z m 496 353 l 522 340 q 536 333 574 315 l 666 269 q 643 246 643 222 q 643 191 707 191 q 728 191 763 196 l 679 -2 q 631 2 536 22 q 445 53 445 160 q 445 241 496 353 z"},"T":{"x_min":0,"x_max":781,"ha":781,"o":"m 285 670 q 57 642 0 616 l 77 847 q 87 849 275 875 q 273 892 269 925 l 501 925 q 504 919 504 906 q 694 925 771 925 l 694 694 q 682 695 644 695 q 591 695 515 691 q 521 480 521 344 q 521 35 501 0 l 279 0 q 293 142 293 354 q 293 520 285 670 z"},"P":{"x_min":0,"x_max":858,"ha":858,"o":"m 171 310 q 129 309 77 309 l 0 540 q 304 540 469 582 q 540 600 540 616 q 540 694 77 694 l 0 925 l 162 925 q 336 925 392 921 q 531 912 617 878 q 771 818 771 616 q 771 485 587 406 q 505 370 403 347 q 403 159 385 0 l 154 0 q 171 149 171 310 z"},"|":{"x_min":0,"x_max":376,"ha":376,"o":"m 240 481 l 9 481 q 12 579 12 715 q 12 805 0 925 l 231 925 q 244 925 244 713 q 244 643 240 481 z m 0 0 l 6 403 l 237 403 l 231 0 z"},"t":{"x_min":0,"x_max":625,"ha":625,"o":"m 228 536 q 46 513 0 493 l 62 678 q 70 679 220 700 q 218 713 215 740 l 401 740 q 403 735 403 725 q 555 740 616 740 l 555 555 q 546 556 515 556 q 473 556 412 552 q 417 384 417 275 q 417 28 401 0 l 223 0 q 234 114 234 284 q 234 416 228 536 z"},"M":{"x_min":0,"x_max":1162,"ha":1162,"o":"m 347 694 q 334 316 182 6 l 3 145 q 96 315 125 527 q 141 645 154 925 l 925 925 q 925 556 989 309 q 1024 178 1079 154 l 968 0 q 803 55 752 428 q 732 579 732 694 z m 416 616 l 663 616 l 656 0 l 428 0 z"},"g":{"x_min":0,"x_max":698,"ha":698,"o":"m 429 363 l 564 296 q 537 247 537 207 q 537 154 600 154 q 606 154 626 157 l 560 -2 q 470 11 417 81 q 386 123 386 191 q 386 265 429 363 z m 0 365 q 0 476 87 567 q 161 644 278 690 q 406 740 555 740 l 616 555 q 597 556 561 556 q 322 556 214 449 q 170 406 170 369 q 172 280 193 236 q 224 169 318 159 l 380 -2 q 176 1 90 81 q 0 164 0 365 z"},"j":{"x_min":0,"x_max":697,"ha":697,"o":"m 432 740 l 616 740 q 616 0 93 0 l 0 154 q 17 153 46 153 q 276 153 367 343 q 432 478 432 740 z"},"i":{"x_min":0,"x_max":318,"ha":318,"o":"m 185 0 l 0 0 q 23 161 23 351 q 23 573 0 740 l 185 740 q 211 589 211 365 q 211 169 185 0 z"},"y":{"x_min":0,"x_max":693,"ha":693,"o":"m -5 624 l 96 735 q 155 735 230 663 q 275 620 322 555 q 380 473 380 432 l 274 326 q 242 399 184 483 q 91 619 -5 624 z m 491 685 l 619 574 q 619 397 486 205 q 344 2 168 2 q 133 2 108 8 l 5 150 q 41 140 71 140 q 211 140 328 272 q 459 420 491 685 z"},"@":{"x_min":0,"x_max":892,"ha":892,"o":"m 387 694 q 282 694 233 552 q 214 494 213 462 q 211 357 283 275 q 322 231 385 231 q 498 231 540 375 q 556 430 555 462 q 549 567 479 649 q 442 694 387 694 z m 384 0 q 281 0 190 62 q 107 120 56 216 q 0 321 0 456 l 0 469 q 0 685 143 813 q 261 919 385 925 q 506 919 625 813 q 767 685 767 469 l 767 456 q 767 331 719 229 q 667 119 567 56 q 477 0 384 0 z m 342 363 l 293 540 l 428 540 l 487 363 z"},".":{"x_min":0,"x_max":373,"ha":373,"o":"m 0 0 l 0 231 l 231 231 l 231 0 z"},"p":{"x_min":0,"x_max":686,"ha":686,"o":"m 137 248 q 104 247 62 247 l 0 432 q 243 432 375 466 q 432 481 432 493 q 432 555 62 555 l 0 740 l 129 740 q 269 740 314 737 q 424 729 494 703 q 616 655 616 493 q 616 388 470 324 q 404 296 322 278 q 322 127 309 0 l 123 0 q 137 119 137 248 z"},"X":{"x_min":0,"x_max":853,"ha":853,"o":"m 462 590 q 559 716 613 857 l 774 718 q 681 524 597 397 q 743 180 743 131 l 610 -2 q 544 117 472 233 q 312 55 135 9 l 6 188 q 175 274 334 439 q 111 771 -6 780 l 120 919 q 220 919 462 590 z"},"*":{"x_min":0,"x_max":737,"ha":737,"o":"m 300 609 q 442 752 462 809 l 622 670 q 570 589 438 441 q 504 359 552 307 l 419 174 q 348 256 307 305 q 193 194 129 165 l 0 344 q 58 381 165 479 l 68 606 q 30 656 12 687 l 138 826 q 204 734 300 609 z"},"Y":{"x_min":0,"x_max":862,"ha":862,"o":"m -6 780 l 120 919 q 193 919 288 828 q 359 761 415 675 q 475 582 475 540 l 342 407 q 302 498 230 603 q 114 773 -6 780 z m 613 857 l 774 718 q 774 496 607 257 q 430 2 210 2 q 166 2 135 9 l 6 188 q 50 175 90 175 q 264 175 410 340 q 574 525 613 857 z"},"c":{"x_min":0,"x_max":691,"ha":691,"o":"m 170 369 q 169 318 226 268 q 333 175 555 160 l 616 0 q 161 0 44 197 q 0 273 0 365 l 0 375 q 0 555 198 657 q 358 740 555 740 l 616 555 q 597 556 561 556 q 378 556 269 489 q 172 429 170 369 z"},"!":{"x_min":0,"x_max":374,"ha":374,"o":"m 234 310 l 3 310 q 8 500 8 625 q 8 852 0 925 l 231 925 q 237 856 237 632 q 237 423 234 310 z m 0 0 l 0 231 l 231 231 l 231 0 z"},"/":{"x_min":0,"x_max":851,"ha":851,"o":"m 774 718 q 738 541 491 287 q 254 41 135 9 l 6 188 q 115 245 326 445 q 416 530 462 590 q 559 716 613 857 z"},"[":{"x_min":0,"x_max":582,"ha":582,"o":"m 26 179 q 38 239 65 396 l 91 561 q 103 638 106 649 q 84 645 5 619 l 82 850 q 289 919 540 922 l 462 691 q 447 698 433 698 q 406 698 363 691 q 303 680 294 679 l 239 284 q 229 214 226 206 q 380 248 484 250 l 454 54 q 445 57 433 57 q 352 57 215 27 q 42 -11 -3 -17 z"},"6":{"x_min":0,"x_max":869,"ha":869,"o":"m 475 -2 q 183 -2 62 197 q 0 300 0 456 q 0 596 110 710 q 214 818 380 874 q 527 925 694 925 l 771 694 q 746 695 701 695 q 472 695 337 612 q 293 584 259 549 q 214 501 213 462 q 211 367 256 290 q 309 201 397 199 q 528 196 528 253 q 528 309 437 391 q 372 449 297 493 q 476 588 481 588 q 741 406 741 211 q 741 106 658 49 q 585 -2 475 -2 z"},"r":{"x_min":0,"x_max":704,"ha":704,"o":"m 137 248 q 104 247 62 247 l 0 432 q 243 432 375 466 q 432 481 432 493 q 432 555 62 555 l 0 740 l 129 740 q 269 740 314 737 q 424 729 494 703 q 616 655 616 493 q 616 388 470 324 q 404 296 322 278 q 322 127 309 0 l 123 0 q 137 119 137 248 z m 397 282 l 418 272 q 429 266 459 251 l 533 215 q 514 197 514 178 q 514 153 566 153 q 582 153 610 157 l 543 -2 q 504 2 429 17 q 357 43 357 128 q 357 193 397 282 z"},"2":{"x_min":0,"x_max":875,"ha":875,"o":"m 171 310 q 144 310 77 309 l 0 540 q 304 540 469 582 q 540 600 540 616 q 540 694 77 694 l 0 925 l 162 925 q 336 925 392 921 q 531 912 617 878 q 771 818 771 616 q 771 498 609 409 q 436 313 171 310 z m -3 -5 l 74 226 q 174 260 409 282 q 634 303 767 303 l 691 72 q 667 82 607 82 q 445 82 193 38 q 84 20 -3 -5 z"},"{":{"x_min":0,"x_max":507,"ha":507,"o":"m 0 469 q 0 620 56 750 q 132 925 309 925 l 385 694 q 268 694 236 615 q 222 582 213 462 q 210 422 210 397 q 210 200 309 200 l 385 0 q 126 0 53 120 q 15 184 5 290 q 0 336 0 469 z"},"9":{"x_min":0,"x_max":869,"ha":869,"o":"m 476 484 q 518 573 540 694 l 206 694 q 233 608 311 552 q 381 500 476 484 z m 0 691 l 0 925 l 771 925 l 771 694 q 771 597 721 473 q 612 204 384 74 q 268 9 135 9 l 25 145 q 242 206 360 319 q 183 329 84 464 q 0 579 0 691 z"}," ":{"x_min":0,"x_max":427,"ha":427,"o":""},"I":{"x_min":0,"x_max":403,"ha":403,"o":"m 231 0 l 0 0 q 29 202 29 438 q 29 716 0 925 l 231 925 q 263 737 263 456 q 263 211 231 0 z"},"H":{"x_min":0,"x_max":853,"ha":853,"o":"m 743 135 l 533 12 q 547 96 547 211 q 547 540 379 540 l 379 411 q 379 292 364 132 q 357 62 347 0 l 116 0 q 143 202 143 540 l 0 540 l 77 771 l 131 771 q 127 822 116 925 l 347 925 q 357 860 365 771 q 477 760 496 756 q 562 743 616 705 q 750 609 750 299 q 750 211 743 135 z"},"4":{"x_min":0,"x_max":889,"ha":889,"o":"m 28 789 l 237 912 q 223 810 223 713 q 223 385 391 385 q 391 711 424 925 l 655 925 q 628 731 628 385 l 771 385 l 694 154 l 640 154 q 642 121 649 51 l 655 0 l 424 0 q 420 0 406 154 q 309 164 275 172 q 204 187 156 221 q 20 318 20 625 q 20 714 28 789 z"},"~":{"x_min":0,"x_max":883,"ha":883,"o":"m 5 619 l 82 850 q 217 895 544 917 q 672 926 775 928 l 698 697 q 677 706 615 706 q 312 706 5 619 z"},"D":{"x_min":0,"x_max":874,"ha":874,"o":"m 231 216 q 445 227 506 499 q 526 585 527 694 l 231 694 z m 0 0 l 0 925 l 771 925 q 774 857 774 823 q 774 505 662 284 q 518 0 231 0 z"},"^":{"x_min":0,"x_max":713,"ha":713,"o":"m 315 925 q 351 895 468 704 q 488 670 529 601 q 573 530 597 506 l 464 373 q 452 384 389 478 q 364 515 346 538 q 318 574 296 591 q 243 507 186 421 q 163 388 137 370 l 0 530 q 22 538 143 704 q 170 743 224 818 q 272 883 315 925 z"},"0":{"x_min":0,"x_max":892,"ha":892,"o":"m 387 694 q 282 694 233 552 q 214 494 213 462 q 211 357 283 275 q 322 231 385 231 q 498 231 540 375 q 556 430 555 462 q 549 567 479 649 q 442 694 387 694 z m 384 0 q 281 0 190 62 q 107 120 56 216 q 0 321 0 456 l 0 469 q 0 685 143 813 q 261 919 385 925 q 506 919 625 813 q 767 685 767 469 l 767 456 q 767 331 719 229 q 667 119 567 56 q 477 0 384 0 z"},"F":{"x_min":0,"x_max":844,"ha":844,"o":"m 113 344 q 50 331 2 318 l 78 549 q 125 562 174 572 q 193 639 199 661 q 72 639 5 619 l 82 850 q 217 895 544 917 q 672 926 775 928 l 698 697 q 677 706 618 706 q 525 706 393 688 q 385 642 375 600 q 474 610 569 616 q 710 625 772 625 l 695 394 q 672 404 612 404 q 500 404 321 379 q 259 142 231 88 l 0 0 q 23 28 113 344 z"},"`":{"x_min":0,"x_max":376,"ha":376,"o":"m 231 543 l 0 543 q 19 613 19 753 q 19 895 0 925 l 231 925 q 247 901 247 740 q 247 579 231 543 z"},"k":{"x_min":0,"x_max":673,"ha":673,"o":"m 185 0 l 0 0 q 23 161 23 351 q 23 573 0 740 l 185 740 q 211 589 211 365 q 211 169 185 0 z m 229 461 q 355 473 421 618 q 448 677 454 727 l 609 639 q 539 389 340 345 q 335 348 297 389 z m 286 348 q 311 336 370 306 l 421 281 q 402 260 402 236 q 402 167 589 150 l 522 -8 q 378 10 287 80 q 230 124 230 197 q 230 263 286 348 z"},"u":{"x_min":0,"x_max":701,"ha":701,"o":"m 309 170 q 396 169 429 360 q 446 455 456 616 l 616 740 q 616 530 602 411 q 552 0 313 0 l 303 0 q 196 0 121 102 q 65 179 35 302 q 0 439 0 585 l 0 612 l 185 740 q 182 708 182 645 q 182 384 249 236 q 279 171 309 170 z"},"]":{"x_min":0,"x_max":602,"ha":602,"o":"m 484 250 l 454 54 q 445 57 433 57 q 352 57 215 27 q 42 -11 -3 -17 l 26 179 q 28 191 214 223 l 293 684 q 116 654 5 619 l 82 850 q 289 919 540 922 l 462 691 q 457 648 440 524 l 414 323 q 404 251 400 236 z"},"U":{"x_min":0,"x_max":877,"ha":877,"o":"m 385 213 q 494 211 536 450 q 558 569 570 771 l 771 925 q 771 662 752 513 q 690 0 391 0 l 379 0 q 245 0 152 128 q 82 224 43 378 q 0 549 0 732 l 0 764 l 231 925 q 228 885 228 806 q 228 480 312 296 q 349 214 385 213 z"},"o":{"x_min":0,"x_max":709,"ha":709,"o":"m 309 555 q 226 555 187 441 q 171 396 170 369 q 169 286 226 220 q 257 185 309 185 q 399 185 432 300 q 445 345 444 369 q 439 454 384 519 q 353 555 309 555 z m 307 0 q 224 0 153 50 q 86 96 44 173 q 0 256 0 365 l 0 375 q 0 548 114 650 q 209 735 309 740 q 405 736 500 650 q 614 548 614 375 l 614 365 q 614 265 576 184 q 533 95 454 45 q 381 0 307 0 z"},"N":{"x_min":0,"x_max":853,"ha":853,"o":"m 0 925 l 616 925 q 616 556 681 309 q 716 178 771 154 l 660 0 q 494 56 444 428 q 424 579 424 694 l 231 694 l 231 0 l 0 0 z"},"+":{"x_min":0,"x_max":870,"ha":870,"o":"m 288 590 q 288 665 281 815 l 512 815 q 515 815 518 613 q 680 625 772 625 l 695 394 q 672 404 610 404 q 574 404 518 400 q 518 352 515 200 l 284 200 l 288 375 q 105 348 2 318 l 78 549 q 147 573 288 590 z"},"G":{"x_min":0,"x_max":873,"ha":873,"o":"m 536 453 l 706 370 q 672 309 672 259 q 672 193 750 193 q 758 193 783 196 l 700 -2 q 588 14 521 102 q 482 153 482 239 q 482 331 536 453 z m 0 456 q 0 596 110 710 q 214 818 380 874 q 527 925 694 925 l 771 694 q 746 695 701 695 q 402 695 267 561 q 212 507 213 462 q 214 350 241 294 q 280 211 397 199 l 475 -2 q 220 2 113 101 q 0 205 0 456 z"},"q":{"x_min":0,"x_max":709,"ha":709,"o":"m 606 288 l 444 369 q 440 454 384 519 q 353 555 309 555 q 226 555 187 441 q 171 396 170 369 q 169 286 226 220 q 257 185 309 185 l 369 -5 q 198 -2 99 97 q 0 195 0 365 l 0 375 q 0 548 114 650 q 213 738 309 740 q 479 743 564 586 q 609 503 609 366 q 609 330 606 288 z m 408 338 l 543 272 q 519 232 519 199 q 519 154 581 154 q 588 154 610 157 l 543 -2 q 366 23 366 172 q 366 242 408 338 z"},"d":{"x_min":0,"x_max":701,"ha":701,"o":"m 185 173 q 355 182 405 399 q 421 467 421 555 l 185 555 z m 0 0 l 0 740 l 616 740 q 619 685 619 658 q 619 404 530 227 q 415 0 185 0 z"},"1":{"x_min":0,"x_max":378,"ha":378,"o":"m 231 0 l 0 0 q 15 187 15 439 q 15 671 5 836 l 0 925 l 231 925 q 237 732 237 457 q 237 217 231 0 z"},"5":{"x_min":0,"x_max":894,"ha":894,"o":"m 556 312 q 552 329 536 330 q 481 333 473 333 q 374 333 203 308 q 130 297 120 297 q 132 306 133 536 l 134 653 q 55 638 0 616 l 77 847 q 65 847 131 859 q 126 925 116 925 l 347 925 q 348 920 354 894 q 584 923 771 925 l 694 694 q 680 695 624 695 q 497 695 384 685 q 384 603 379 561 l 613 561 q 740 561 772 450 q 795 370 795 310 q 795 8 305 8 q 162 8 -2 31 l 78 260 q 266 233 387 233 q 559 233 559 294 q 559 300 556 312 z"}}}
